<svg xmlns="http://www.w3.org/2000/svg" width="42.27" height="42.27" viewBox="0 0 42.27 42.27">
  <path id="eletric-pole" d="M30.109,2H16.16L2,11.426v7.482H6.227V14.681h8.454v5.9L6.227,39.6V44.27h4.227V41.29l12.681-6.911L35.816,41.29v2.98h4.227V39.6L31.589,20.577v-5.9h8.454v4.227H44.27V11.426ZM27.362,6.227v4.227H18.908V6.227ZM11.088,10.454l3.593-2.388v2.388ZM28,23.135l1.479,3-6.34,3.339-6.34-3.339,1.374-3ZM12.8,35.2,15.1,30l3.614,1.966ZM31.145,30l2.3,5.2-5.918-3.234Zm-3.783-11.1H18.908V14.681h8.454ZM31.589,8.066l3.593,2.388H31.589Z" transform="translate(-2 -2)" fill="#fff"/>
</svg>
